<?xml version="1.0" standalone="no"?>
<!DOCTYPE svg PUBLIC "-//W3C//DTD SVG 20010904//EN"
 "http://www.w3.org/TR/2001/REC-SVG-20010904/DTD/svg10.dtd">
<svg version="1.0" xmlns="http://www.w3.org/2000/svg"
 width="700.000000pt" height="700.000000pt" viewBox="0 0 700.000000 700.000000"
 preserveAspectRatio="xMidYMid meet">
<metadata>
Created by potrace 1.11, written by Peter Selinger 2001-2013
</metadata>
<g transform="translate(0.000000,700.000000) scale(0.100000,-0.100000)"
fill="#000000" stroke="none">
<path d="M0 5930 c0 -1021 1 -1071 18 -1078 16 -6 188 -112 337 -207 76 -48
354 -221 635 -395 93 -57 167 -107 164 -109 -3 -3 -262 -165 -577 -361 l-572
-356 -3 -1067 c-2 -850 0 -1067 10 -1068 18 -1 2020 -1 2035 0 10 1 12 153 12
684 0 375 1 699 1 719 l0 37 1440 0 1440 1 0 -720 0 -720 23 -1 c32 -1 2010
-1 2025 0 9 1 12 221 12 1066 l0 1065 -57 36 c-32 20 -74 46 -93 59 -30 19
-696 433 -933 580 -55 33 -75 51 -65 56 7 4 74 46 148 93 74 46 173 108 220
137 47 28 108 66 135 84 28 17 107 67 178 111 70 43 169 105 220 137 50 31
127 78 170 104 l77 47 0 1068 0 1068 -1030 0 -1030 0 0 -720 0 -720 -42 0
c-307 -3 -2831 0 -2834 3 -3 2 -5 327 -5 721 l0 716 -1030 0 -1029 0 0 -1070z"/>
<path d="M3735 6652 c-41 -7 -73 -24 -83 -45 -19 -40 -20 -53 -7 -83 13 -32
26 -39 127 -68 76 -22 97 -57 58 -96 -29 -29 -112 -28 -140 2 -11 12 -20 30
-20 40 0 11 -7 18 -20 18 -46 0 -15 -80 41 -105 59 -27 135 -17 171 24 60 67
22 137 -90 161 -34 8 -70 22 -79 32 -36 40 17 95 82 82 35 -6 52 -19 60 -45 7
-20 45 -27 45 -9 0 23 -29 66 -52 77 -28 14 -66 20 -93 15z"/>
<path d="M2780 6480 c0 -163 1 -170 20 -170 18 0 20 8 22 136 l3 135 45 -135
c42 -129 46 -136 69 -134 23 3 30 17 72 143 l47 140 -1 -140 c0 -137 0 -140
22 -143 22 -3 22 -3 21 168 l-2 171 -30 -3 c-31 -3 -32 -6 -75 -133 -23 -71
-45 -136 -48 -144 -4 -11 -105 255 -105 276 0 2 -13 3 -30 3 l-30 0 0 -170z"/>
<path d="M3180 6481 c0 -171 0 -171 23 -171 22 0 22 0 22 168 0 166 0 167 -22
170 l-23 3 0 -170z"/>
<path d="M3300 6480 c0 -163 1 -170 20 -170 22 0 23 8 21 190 l-1 85 66 -100
c36 -55 75 -117 86 -137 17 -29 28 -38 48 -38 l26 0 0 170 c-1 166 -1 171 -21
168 -19 -3 -20 -11 -21 -128 -1 -69 -2 -129 -3 -134 0 -5 -25 29 -54 75 -110
175 -121 189 -144 189 -23 0 -23 0 -23 -170z"/>
<path d="M3950 6479 l0 -170 22 3 c20 3 23 9 23 60 0 50 4 61 28 85 23 23 29
26 37 13 5 -8 30 -46 57 -85 38 -56 54 -71 77 -73 l29 -4 -35 49 c-19 26 -52
72 -72 102 l-36 54 69 68 c65 64 68 69 43 69 -20 0 -47 -21 -113 -86 l-86 -86
-1 74 c0 101 0 98 -22 98 -19 0 -20 -7 -20 -171z"/>
<path d="M1515 716 c-57 -18 -96 -40 -129 -72 -105 -106 -131 -336 -55 -486
54 -106 130 -151 259 -152 100 -1 127 4 174 36 42 29 71 65 91 111 19 45 35
117 26 118 -34 4 -72 4 -79 0 -4 -3 -14 -26 -21 -51 -27 -93 -84 -140 -174
-142 -133 -4 -225 99 -231 258 -9 229 120 358 298 298 48 -16 94 -67 100 -111
2 -14 13 -19 51 -21 47 -3 47 -3 41 24 -32 126 -112 191 -242 198 -39 2 -87
-1 -109 -8z"/>
<path d="M4075 715 c-27 -8 -52 -14 -55 -15 -14 -1 -70 -60 -85 -89 -25 -49
-23 -127 4 -173 27 -46 73 -68 211 -104 159 -41 200 -68 200 -134 0 -72 -85
-130 -180 -124 -115 7 -174 48 -187 130 -5 33 -7 34 -49 34 l-43 0 6 -37 c20
-131 116 -203 273 -203 155 0 251 69 267 192 12 94 -45 163 -164 197 -43 13
-109 32 -147 43 -85 24 -125 60 -121 106 6 73 62 112 160 112 93 0 165 -52
165 -120 0 -19 5 -21 43 -18 41 3 42 4 40 36 -1 18 -13 53 -27 77 -48 82 -190
123 -311 90z"/>
<path d="M6015 715 c-93 -28 -149 -77 -189 -165 -76 -168 -35 -402 85 -493 47
-35 119 -57 187 -57 151 0 244 73 278 216 7 30 9 54 6 55 -36 4 -73 4 -80 0
-4 -3 -15 -31 -25 -62 -20 -66 -58 -105 -118 -123 -89 -25 -185 8 -234 82 -72
109 -63 325 17 413 45 49 78 63 153 64 93 0 131 -21 165 -92 25 -52 26 -53 69
-53 42 0 43 1 36 28 -20 84 -73 150 -145 180 -45 19 -154 23 -205 7z"/>
<path d="M5 712 c-3 -3 -5 -160 -5 -349 l0 -343 45 0 45 0 0 158 0 159 158 1
c86 0 167 -1 179 -4 21 -4 21 -8 21 -141 0 -76 0 -146 1 -155 1 -14 10 -18 44
-18 l42 0 -1 338 c-1 185 -2 342 -3 348 0 6 -19 10 -41 10 -29 0 -40 -5 -41
-16 0 -8 -2 -73 -3 -145 -2 -72 -3 -132 -4 -135 -1 -3 -81 -5 -177 -5 l-175 0
0 147 c0 82 -3 149 -7 149 -32 5 -73 5 -78 1z"/>
<path d="M865 685 c-7 -16 -51 -138 -98 -270 -47 -132 -97 -271 -111 -309 -14
-37 -26 -73 -26 -78 0 -5 21 -8 46 -6 l47 3 36 103 36 103 134 -3 134 -3 35
-102 36 -103 48 0 c26 0 48 2 48 4 0 6 -58 171 -70 201 -4 11 -45 126 -90 255
l-81 236 -56 -1 c-53 0 -57 -2 -68 -30z m119 -224 c25 -73 46 -139 46 -146 0
-8 -30 -12 -105 -12 -102 0 -105 1 -99 21 27 92 100 283 106 278 4 -4 27 -67
52 -141z"/>
<path d="M2005 712 c-3 -3 -5 -160 -5 -349 l0 -343 45 0 45 0 0 123 0 123 55
54 56 55 19 -25 c11 -14 66 -93 122 -177 l103 -152 53 -1 c40 0 51 3 45 13
-11 19 -131 191 -140 202 -4 6 -37 52 -72 104 l-64 93 139 139 c76 76 134 140
129 140 -6 1 -30 2 -55 3 l-45 1 -172 -175 -173 -175 0 173 c0 94 -3 173 -7
173 -32 5 -73 5 -78 1z"/>
<path d="M2646 710 c-2 -3 -2 -158 -2 -345 l1 -340 246 -3 247 -2 4 22 c10 56
4 59 -95 58 -51 -1 -142 -1 -204 -1 l-112 1 0 118 -1 119 177 0 c98 1 184 2
191 2 7 1 12 16 12 39 l0 38 -181 -1 c-99 0 -184 2 -189 5 -5 3 -8 53 -7 110
l2 105 175 2 c96 0 185 1 196 2 18 1 21 7 20 38 l-1 38 -238 0 c-131 0 -240
-2 -241 -5z"/>
<path d="M3249 681 c0 -48 0 -598 0 -633 1 -26 4 -28 44 -28 l43 0 0 150 -1
150 128 0 c135 0 187 -12 203 -48 3 -9 10 -65 14 -124 5 -59 11 -112 15 -117
7 -13 115 -15 115 -2 0 5 -6 14 -14 20 -19 16 -28 58 -31 146 -3 79 -20 123
-61 149 l-26 18 37 31 c104 86 80 251 -44 305 -28 12 -81 15 -228 17 l-193 1
-1 -35z m393 -65 c46 -30 58 -110 27 -171 -21 -42 -80 -51 -299 -46 l-35 1 1
103 c1 56 2 110 3 119 1 15 16 16 139 14 112 -2 142 -5 164 -20z"/>
<path d="M4565 711 c-1 -3 -3 -160 -3 -348 l0 -343 44 0 43 0 3 147 3 147 130
2 c138 1 178 11 224 54 70 68 71 216 1 289 -44 46 -82 54 -268 56 -95 0 -175
-1 -177 -4z m346 -90 c57 -28 78 -124 38 -175 -35 -44 -65 -53 -186 -54 l-113
-1 0 124 0 124 118 -3 c65 -2 128 -8 143 -15z"/>
<path d="M5371 701 c-4 -9 -20 -52 -36 -96 -15 -44 -31 -89 -36 -100 -13 -29
-169 -475 -169 -482 0 -2 21 -3 46 -1 l47 3 36 103 36 103 135 -3 134 -3 35
-102 34 -103 49 0 c26 0 48 2 48 4 0 3 -36 107 -184 531 -31 88 -56 160 -56
160 0 0 -25 1 -56 1 -41 1 -57 -3 -63 -15z m115 -244 c26 -78 47 -144 46 -147
-3 -7 -212 -8 -212 -1 0 17 106 298 112 295 3 -2 28 -68 54 -147z"/>
<path d="M6500 368 l0 -348 250 0 250 0 0 40 0 40 -205 0 -205 0 0 119 0 119
173 0 c94 0 180 1 190 1 15 1 18 8 15 39 l-3 37 -187 0 -188 0 0 111 0 110
189 1 c104 1 194 3 199 6 5 4 8 16 6 29 -1 13 -3 28 -3 33 -1 7 -82 11 -241
10 l-240 0 0 -347z"/>
</g>
</svg>
