<?xml version="1.0" standalone="no"?>
<!DOCTYPE svg PUBLIC "-//W3C//DTD SVG 20010904//EN"
 "http://www.w3.org/TR/2001/REC-SVG-20010904/DTD/svg10.dtd">
<svg version="1.0" xmlns="http://www.w3.org/2000/svg"
 width="700.000000pt" height="700.000000pt" viewBox="0 0 700.000000 700.000000"
 preserveAspectRatio="xMidYMid meet">
<metadata>
Created by potrace 1.11, written by Peter Selinger 2001-2013
</metadata>
<g transform="translate(0.000000,700.000000) scale(0.100000,-0.100000)"
fill="#000000" stroke="none">
<path d="M0 5288 l0 -1063 580 -360 c319 -198 580 -362 580 -365 0 -3 -261
-167 -580 -365 l-580 -360 0 -1062 0 -1063 1030 0 1030 0 0 720 0 720 1440 0
1440 0 0 -720 0 -720 1030 0 1030 0 0 1063 0 1062 -580 360 c-319 198 -580
362 -580 365 0 3 261 167 580 365 l580 360 0 1063 0 1062 -1030 0 -1030 0 0
-720 0 -720 -1440 0 -1440 0 0 720 0 720 -1030 0 -1030 0 0 -1062z m1099 833
c25 -23 31 -37 31 -70 0 -91 -109 -139 -173 -76 -94 95 44 237 142 146z m4935
8 c28 -22 45 -70 38 -106 -2 -12 -16 -34 -29 -48 -64 -63 -173 -15 -173 76 0
82 99 129 164 78z m-5568 -408 c44 -27 60 -77 40 -125 -8 -20 -26 -41 -41 -48
l-25 -11 2 -400 3 -401 860 -537 860 -538 103 0 102 -1 0 100 0 100 -106 0
-106 0 -679 423 -679 422 0 408 0 408 -40 38 c-33 31 -40 45 -40 75 0 53 52
106 105 106 42 0 90 -40 101 -85 9 -36 -18 -92 -51 -107 l-25 -11 2 -400 3
-400 665 -414 664 -414 91 3 90 3 0 100 0 100 -110 5 -110 5 -467 290 -467
290 -1 418 c0 339 -2 417 -13 417 -8 0 -24 12 -38 26 -18 19 -24 37 -24 71 0
38 5 49 33 74 43 39 90 39 132 2 45 -41 51 -98 15 -141 -15 -18 -33 -32 -41
-32 -12 0 -14 -60 -12 -401 l3 -401 458 -284 457 -284 95 0 95 0 0 100 0 100
-102 0 -103 0 -272 168 -272 167 -1 416 0 416 -26 11 c-37 17 -58 74 -44 118
39 117 200 87 200 -37 0 -22 -10 -41 -35 -66 l-35 -35 0 -397 0 -396 248 -152
247 -153 98 0 97 0 0 90 0 90 204 0 204 0 38 -88 c22 -48 183 -419 359 -825
176 -405 322 -736 325 -736 3 0 149 331 325 736 176 406 337 777 359 825 l38
88 204 0 204 0 0 -90 0 -90 98 0 97 0 247 153 248 152 0 397 0 396 -35 35
c-52 52 -46 125 15 160 60 36 128 10 150 -57 14 -44 -7 -101 -44 -118 l-26
-11 0 -416 -1 -416 -272 -167 -272 -168 -102 0 -103 0 0 -100 0 -100 95 0 95
0 457 284 458 284 3 401 c2 341 0 401 -12 401 -8 0 -26 14 -41 32 -36 43 -30
100 15 141 42 37 89 37 132 -2 28 -25 33 -36 33 -74 0 -34 -6 -52 -24 -71 -14
-14 -30 -26 -38 -26 -11 0 -13 -78 -13 -417 l-1 -418 -467 -290 -467 -290
-110 -5 -110 -5 0 -100 0 -100 90 -3 91 -3 664 414 665 414 3 400 2 400 -25
11 c-33 15 -60 71 -51 107 11 45 59 85 101 85 53 0 105 -53 105 -106 0 -30 -7
-44 -40 -75 l-40 -38 0 -408 0 -408 -679 -422 -679 -423 -106 0 -106 0 0 -100
0 -100 103 1 102 0 860 538 860 537 3 401 2 400 -25 11 c-38 17 -59 74 -44
119 12 38 59 73 97 73 56 0 101 -46 102 -103 0 -31 -7 -46 -35 -74 l-35 -35
-2 -410 -3 -410 -889 -554 -888 -554 -104 0 -104 0 0 -100 0 -100 104 0 104 0
888 -554 889 -554 3 -410 2 -410 35 -35 c28 -28 35 -43 35 -74 -1 -57 -46
-103 -102 -103 -38 0 -85 35 -97 73 -15 45 6 102 44 119 l25 11 -2 400 -3 401
-860 537 -860 538 -102 0 -103 1 0 -100 0 -100 106 0 106 0 679 -422 679 -423
0 -408 0 -408 40 -38 c33 -31 40 -45 40 -75 0 -53 -52 -106 -105 -106 -42 0
-90 40 -101 85 -9 36 18 92 51 107 l25 11 -2 400 -3 400 -665 414 -664 414
-91 -3 -90 -3 0 -100 0 -100 110 -5 110 -5 467 -290 467 -290 1 -417 c0 -340
2 -418 13 -418 8 0 24 -12 38 -26 18 -19 24 -37 24 -71 0 -38 -5 -49 -33 -74
-43 -39 -90 -39 -132 -1 -45 40 -51 97 -15 140 15 18 33 32 41 32 12 0 14 60
12 401 l-3 401 -458 284 -457 284 -95 0 -95 0 0 -100 0 -100 103 0 102 0 272
-168 272 -167 1 -416 0 -416 26 -11 c37 -17 58 -74 44 -118 -39 -117 -200 -87
-200 37 0 22 10 41 35 66 l35 35 0 397 0 396 -248 152 -247 153 -97 0 -98 0 0
-90 0 -90 -205 0 -205 0 -2 586 -3 586 -249 -573 c-137 -316 -254 -580 -259
-587 -7 -9 -61 -12 -207 -12 -146 0 -200 3 -207 12 -5 7 -122 271 -259 587
l-249 573 -3 -586 -2 -586 -205 0 -205 0 0 90 0 90 -97 0 -98 0 -247 -153
-248 -152 0 -396 0 -397 35 -35 c52 -52 46 -125 -15 -160 -60 -36 -128 -10
-150 57 -14 44 7 101 44 118 l26 11 0 416 1 416 272 167 272 168 103 0 102 0
0 100 0 100 -95 0 -95 0 -457 -284 -458 -284 -3 -401 c-2 -341 0 -401 12 -401
8 0 26 -14 41 -32 36 -43 30 -100 -15 -141 -42 -37 -89 -37 -132 2 -28 25 -33
36 -33 74 0 34 6 52 24 71 14 14 30 26 38 26 11 0 13 78 13 418 l1 417 467
290 467 290 110 5 110 5 0 100 0 100 -90 3 -91 3 -664 -414 -665 -414 -3 -400
-2 -400 25 -11 c33 -15 60 -71 51 -107 -11 -45 -59 -85 -101 -85 -53 0 -105
53 -105 106 0 30 7 44 40 75 l40 38 0 408 0 408 679 423 679 422 106 0 106 0
0 100 0 100 -102 -1 -103 0 -860 -538 -860 -537 -3 -401 -2 -400 25 -11 c38
-17 59 -74 44 -119 -12 -38 -59 -73 -97 -73 -56 0 -101 46 -102 103 0 31 7 46
35 74 l35 35 2 410 3 410 889 554 888 554 104 0 104 0 0 100 0 100 -104 0
-104 0 -888 554 -889 554 -3 410 -2 410 -35 35 c-28 28 -35 43 -35 74 1 83 84
128 156 84z m637 -4702 c20 -22 27 -39 27 -70 0 -114 -169 -136 -198 -26 -11
44 -4 72 25 101 43 43 102 41 146 -5z m4923 19 c54 -26 62 -111 15 -159 -23
-22 -39 -29 -69 -29 -89 0 -134 100 -77 169 35 41 75 47 131 19z"/>
<path d="M370 5660 c-6 -12 -8 -30 -5 -40 7 -24 52 -37 74 -23 20 13 26 50 11
69 -19 21 -67 18 -80 -6z"/>
<path d="M787 5673 c-11 -11 -8 -58 5 -71 28 -28 78 -7 78 33 0 12 -5 26 -12
33 -13 13 -60 16 -71 5z"/>
<path d="M1202 5668 c-15 -15 -15 -51 0 -66 28 -28 78 -7 78 33 0 27 -18 45
-45 45 -12 0 -26 -5 -33 -12z"/>
<path d="M1612 5668 c-16 -16 -15 -53 2 -68 36 -29 92 13 75 58 -9 25 -56 31
-77 10z"/>
<path d="M5311 5658 c-17 -45 39 -87 75 -58 17 15 18 52 2 68 -21 21 -68 15
-77 -10z"/>
<path d="M5732 5668 c-7 -7 -12 -21 -12 -33 0 -12 5 -26 12 -33 7 -7 21 -12
33 -12 12 0 26 5 33 12 7 7 12 21 12 33 0 12 -5 26 -12 33 -7 7 -21 12 -33 12
-12 0 -26 -5 -33 -12z"/>
<path d="M6142 5668 c-28 -28 -7 -78 34 -78 29 0 46 23 42 57 -2 23 -8 29 -33
31 -17 2 -36 -3 -43 -10z"/>
<path d="M6550 5666 c-15 -19 -9 -56 11 -69 9 -5 28 -7 42 -3 52 13 42 86 -12
86 -16 0 -34 -7 -41 -14z"/>
<path d="M376 1394 c-30 -29 -10 -74 32 -74 33 0 52 16 52 45 0 43 -53 61 -84
29z"/>
<path d="M791 1396 c-7 -8 -11 -27 -9 -43 6 -51 88 -41 88 11 0 42 -53 63 -79
32z"/>
<path d="M1202 1398 c-28 -28 -7 -78 33 -78 12 0 26 5 33 12 7 7 12 21 12 33
0 12 -5 26 -12 33 -7 7 -21 12 -33 12 -12 0 -26 -5 -33 -12z"/>
<path d="M1612 1398 c-16 -16 -15 -53 2 -67 22 -19 68 -9 77 15 16 45 -46 85
-79 52z"/>
<path d="M5316 1389 c-20 -30 -6 -63 28 -67 33 -4 56 13 56 42 0 47 -57 63
-84 25z"/>
<path d="M5732 1398 c-28 -28 -7 -78 33 -78 27 0 45 18 45 45 0 27 -18 45 -45
45 -12 0 -26 -5 -33 -12z"/>
<path d="M6142 1398 c-16 -16 -15 -53 2 -67 8 -7 27 -11 43 -9 51 6 41 88 -11
88 -12 0 -27 -5 -34 -12z"/>
<path d="M6552 1398 c-7 -7 -12 -21 -12 -33 0 -29 19 -45 52 -45 25 0 48 23
48 49 0 33 -63 54 -88 29z"/>
</g>
</svg>
